<svg xmlns="http://www.w3.org/2000/svg" width="79" height="20" fill="none"><path fill="#fff" d="M5.45 19H.3V.4h5.15V19ZM16.091 4.65h-7.2V.4h19.525v4.25h-7.2V19h-5.125V4.65ZM31.867.4h13.575c1.334 0 2.425.133 3.275.4.867.267 1.55.608 2.05 1.025.5.417.842.892 1.025 1.425.2.517.3 1.033.3 1.55v.275c0 .583-.116 1.1-.35 1.55-.216.433-.5.8-.85 1.1-.333.3-.7.533-1.1.7a4.66 4.66 0 0 1-1.125.325 6.803 6.803 0 0 1 1.55.45c.534.2 1 .483 1.4.85.417.367.75.825 1 1.375.267.533.4 1.175.4 1.925v.275c0 .633-.116 1.275-.35 1.925-.216.633-.608 1.208-1.175 1.725-.55.5-1.308.917-2.275 1.25-.966.317-2.2.475-3.7.475h-13.65V.4Zm5.15 3.875V7.6h7.675c.784 0 1.317-.158 1.6-.475.284-.333.425-.717.425-1.15v-.05c0-.45-.15-.833-.45-1.15-.283-.333-.808-.5-1.575-.5h-7.675Zm0 6.975v3.675h8.075c.45 0 .825-.05 1.125-.15.3-.117.534-.258.7-.425.184-.183.309-.383.375-.6a2.07 2.07 0 0 0 .125-.7v-.1c0-.233-.041-.45-.125-.65a1.128 1.128 0 0 0-.375-.55c-.166-.15-.4-.267-.7-.35-.3-.1-.675-.15-1.125-.15h-8.075Zm29.531 8.025c-1.416 0-2.666-.142-3.75-.425-1.083-.283-2.025-.658-2.825-1.125a8.955 8.955 0 0 1-2-1.65 9.042 9.042 0 0 1-1.3-1.95c-.316-.7-.541-1.4-.675-2.1-.133-.7-.2-1.367-.2-2v-.75c0-.65.067-1.325.2-2.025.134-.7.359-1.383.675-2.05a9.04 9.04 0 0 1 1.3-1.95 7.974 7.974 0 0 1 2-1.6c.8-.467 1.742-.833 2.825-1.1 1.084-.283 2.334-.425 3.75-.425h1.15c1.95 0 3.584.217 4.9.65 1.334.433 2.409 1 3.225 1.7.817.7 1.4 1.492 1.75 2.375.35.867.525 1.742.525 2.625v.05h-5.3c-.016-.133-.091-.367-.225-.7-.133-.35-.4-.708-.8-1.075s-.966-.683-1.7-.95c-.733-.283-1.716-.425-2.95-.425-1.133 0-2.083.15-2.85.45-.766.283-1.383.667-1.85 1.15a4.027 4.027 0 0 0-1 1.625 6.214 6.214 0 0 0-.275 1.825v.35c0 .583.1 1.183.3 1.8.2.6.534 1.158 1 1.675.467.517 1.084.942 1.85 1.275.767.317 1.717.475 2.85.475 1.234 0 2.217-.142 2.95-.425.75-.283 1.317-.608 1.7-.975.4-.383.659-.75.775-1.1.134-.367.209-.625.225-.775h5.3v.075c0 .85-.175 1.717-.525 2.6-.333.883-.908 1.692-1.725 2.425-.8.717-1.866 1.308-3.2 1.775-1.333.45-2.983.675-4.95.675h-1.15Z"/></svg>