<svg xmlns="http://www.w3.org/2000/svg" width="0" height="0">
  <symbol id="icon-external-link_14" viewBox="0 0 14 14" fill="none">
    <g clip-path="url(#a)">
      <path fill="currentColor"
        d="M5.833 1.75v1.167H2.917v8.166h8.166V8.167h1.167v3.5a.583.583 0 0 1-.583.583H2.333a.583.583 0 0 1-.583-.583V2.333a.583.583 0 0 1 .583-.583h3.5Zm4.425 1.167H7.583V1.75h4.667v4.667h-1.167V3.742L7 7.825 6.175 7l4.083-4.083Z" />
    </g>
    <defs>
      <clipPath id="a">
        <path fill="currentColor" d="M0 0h14v14H0z" />
      </clipPath>
    </defs>
  </symbol>

  <symbol id="icon-search_24" viewBox="0 0 24 24" fill="none">
    <path fill="currentColor"
      d="m18.031 16.617 4.283 4.282-1.415 1.415-4.282-4.283A8.96 8.96 0 0 1 11 20c-4.968 0-9-4.032-9-9s4.032-9 9-9 9 4.032 9 9a8.96 8.96 0 0 1-1.969 5.617Zm-2.006-.742A6.977 6.977 0 0 0 18 11c0-3.868-3.133-7-7-7-3.868 0-7 3.132-7 7 0 3.867 3.132 7 7 7a6.977 6.977 0 0 0 4.875-1.975l.15-.15Z" />
  </symbol>

  <symbol id="icon-account_24" viewBox="0 0 24 24" fill="none">
    <path fill="currentColor"
      d="M12 22C6.477 22 2 17.523 2 12S6.477 2 12 2s10 4.477 10 10-4.477 10-10 10Zm-4.987-3.744A7.966 7.966 0 0 0 12 20a7.97 7.97 0 0 0 5.167-1.892A6.978 6.978 0 0 0 12.16 16a6.982 6.982 0 0 0-5.147 2.256ZM5.616 16.82A8.975 8.975 0 0 1 12.16 14a8.972 8.972 0 0 1 6.362 2.634 8 8 0 1 0-12.906.187v-.001ZM12 13a4 4 0 1 1 0-8 4 4 0 0 1 0 8Zm0-2a2 2 0 1 0 0-4 2 2 0 0 0 0 4Z" />
  </symbol>
</svg>